<svg width="183" height="34" viewBox="0 0 183 34" fill="none" xmlns="http://www.w3.org/2000/svg">
<g clip-path="url(#clip0)">
<path d="M5.66667 18.6297C4.62778 18.6297 3.77778 19.4797 3.77778 20.5186C3.77778 21.5574 4.62778 22.4074 5.66667 22.4074C6.70556 22.4074 7.55556 21.5574 7.55556 20.5186C7.55556 19.4797 6.70556 18.6297 5.66667 18.6297ZM0 3.51855V5.40744H1.88889L5.28889 12.5852L3.96667 14.8519C3.87222 15.1352 3.77778 15.513 3.77778 15.7963C3.77778 16.8352 4.62778 17.6852 5.66667 17.6852H17V15.7963H6.04444C5.95 15.7963 5.85556 15.7019 5.85556 15.6074V15.513L6.70556 13.9074H13.6944C14.45 13.9074 15.0167 13.5296 15.3 12.963L18.7 6.82411C18.8889 6.63522 18.8889 6.54078 18.8889 6.35189C18.8889 5.78522 18.5111 5.40744 17.9444 5.40744H3.96667L3.11667 3.51855H0ZM15.1111 18.6297C14.0722 18.6297 13.2222 19.4797 13.2222 20.5186C13.2222 21.5574 14.0722 22.4074 15.1111 22.4074C16.15 22.4074 17 21.5574 17 20.5186C17 19.4797 16.15 18.6297 15.1111 18.6297Z" fill="#FF834E"/>
</g>
<path d="M45.1667 19.0533V22H32.8813V6.13333H44.872V9.08H36.5307V12.5253H43.8973V15.3813H36.5307V19.0533H45.1667ZM46.943 14.2027H53.3577V17.036H46.943V14.2027ZM62.2545 22.1813C60.9549 22.1813 59.7838 21.9169 58.7412 21.388C57.7136 20.844 56.9052 20.096 56.3158 19.144C55.7416 18.192 55.4545 17.1116 55.4545 15.9027C55.4545 14.6938 55.7416 13.6133 56.3158 12.6613C56.9052 11.7093 57.7136 10.9689 58.7412 10.44C59.7838 9.896 60.9549 9.624 62.2545 9.624C63.5389 9.624 64.6572 9.896 65.6092 10.44C66.5763 10.9689 67.2789 11.732 67.7172 12.7293L64.9745 14.2027C64.3398 13.0844 63.4256 12.5253 62.2318 12.5253C61.3101 12.5253 60.5469 12.8276 59.9425 13.432C59.3381 14.0364 59.0358 14.86 59.0358 15.9027C59.0358 16.9453 59.3381 17.7689 59.9425 18.3733C60.5469 18.9778 61.3101 19.28 62.2318 19.28C63.4407 19.28 64.3549 18.7209 64.9745 17.6027L67.7172 19.0987C67.2789 20.0658 66.5763 20.8213 65.6092 21.3653C64.6572 21.9093 63.5389 22.1813 62.2545 22.1813ZM75.4008 22.1813C74.1164 22.1813 72.9604 21.9169 71.9328 21.388C70.9204 20.844 70.127 20.096 69.5528 19.144C68.9786 18.192 68.6915 17.1116 68.6915 15.9027C68.6915 14.6938 68.9786 13.6133 69.5528 12.6613C70.127 11.7093 70.9204 10.9689 71.9328 10.44C72.9604 9.896 74.1164 9.624 75.4008 9.624C76.6853 9.624 77.8337 9.896 78.8461 10.44C79.8586 10.9689 80.6519 11.7093 81.2261 12.6613C81.8004 13.6133 82.0875 14.6938 82.0875 15.9027C82.0875 17.1116 81.8004 18.192 81.2261 19.144C80.6519 20.096 79.8586 20.844 78.8461 21.388C77.8337 21.9169 76.6853 22.1813 75.4008 22.1813ZM75.4008 19.28C76.3075 19.28 77.0479 18.9778 77.6221 18.3733C78.2115 17.7538 78.5061 16.9302 78.5061 15.9027C78.5061 14.8751 78.2115 14.0591 77.6221 13.4547C77.0479 12.8351 76.3075 12.5253 75.4008 12.5253C74.4941 12.5253 73.7461 12.8351 73.1568 13.4547C72.5675 14.0591 72.2728 14.8751 72.2728 15.9027C72.2728 16.9302 72.5675 17.7538 73.1568 18.3733C73.7461 18.9778 74.4941 19.28 75.4008 19.28ZM100.068 9.624C101.595 9.624 102.803 10.0773 103.695 10.984C104.602 11.8756 105.055 13.2204 105.055 15.0187V22H101.519V15.5627C101.519 14.5956 101.315 13.8778 100.907 13.4093C100.514 12.9258 99.9475 12.684 99.207 12.684C98.3759 12.684 97.7186 12.956 97.235 13.5C96.7515 14.0289 96.5097 14.8222 96.5097 15.88V22H92.9737V15.5627C92.9737 13.6436 92.203 12.684 90.6617 12.684C89.8457 12.684 89.1959 12.956 88.7123 13.5C88.2288 14.0289 87.987 14.8222 87.987 15.88V22H84.451V9.80533H87.8283V11.2107C88.2817 10.6969 88.8332 10.304 89.483 10.032C90.1479 9.76 90.8732 9.624 91.659 9.624C92.5203 9.624 93.2986 9.79778 93.9937 10.1453C94.6888 10.4778 95.2479 10.9689 95.671 11.6187C96.1697 10.984 96.7968 10.4929 97.5523 10.1453C98.323 9.79778 99.1617 9.624 100.068 9.624ZM123.842 9.624C125.368 9.624 126.577 10.0773 127.468 10.984C128.375 11.8756 128.828 13.2204 128.828 15.0187V22H125.292V15.5627C125.292 14.5956 125.088 13.8778 124.68 13.4093C124.288 12.9258 123.721 12.684 122.98 12.684C122.149 12.684 121.492 12.956 121.008 13.5C120.525 14.0289 120.283 14.8222 120.283 15.88V22H116.747V15.5627C116.747 13.6436 115.976 12.684 114.435 12.684C113.619 12.684 112.969 12.956 112.486 13.5C112.002 14.0289 111.76 14.8222 111.76 15.88V22H108.224V9.80533H111.602V11.2107C112.055 10.6969 112.607 10.304 113.256 10.032C113.921 9.76 114.647 9.624 115.432 9.624C116.294 9.624 117.072 9.79778 117.767 10.1453C118.462 10.4778 119.021 10.9689 119.444 11.6187C119.943 10.984 120.57 10.4929 121.326 10.1453C122.096 9.79778 122.935 9.624 123.842 9.624ZM144.076 15.948C144.076 15.9933 144.053 16.3107 144.008 16.9H134.783C134.949 17.6556 135.342 18.2524 135.961 18.6907C136.581 19.1289 137.352 19.348 138.273 19.348C138.908 19.348 139.467 19.2573 139.951 19.076C140.449 18.8796 140.91 18.5773 141.333 18.1693L143.215 20.2093C142.066 21.524 140.389 22.1813 138.183 22.1813C136.808 22.1813 135.591 21.9169 134.533 21.388C133.476 20.844 132.66 20.096 132.085 19.144C131.511 18.192 131.224 17.1116 131.224 15.9027C131.224 14.7089 131.504 13.636 132.063 12.684C132.637 11.7169 133.415 10.9689 134.397 10.44C135.395 9.896 136.505 9.624 137.729 9.624C138.923 9.624 140.004 9.88089 140.971 10.3947C141.938 10.9084 142.693 11.6489 143.237 12.616C143.796 13.568 144.076 14.6787 144.076 15.948ZM137.752 12.2987C136.951 12.2987 136.279 12.5253 135.735 12.9787C135.191 13.432 134.858 14.0516 134.737 14.8373H140.744C140.623 14.0667 140.291 13.4547 139.747 13.0013C139.203 12.5329 138.538 12.2987 137.752 12.2987ZM149.808 11.4147C150.231 10.8253 150.797 10.3796 151.508 10.0773C152.233 9.77511 153.064 9.624 154.001 9.624V12.888C153.608 12.8578 153.344 12.8427 153.208 12.8427C152.195 12.8427 151.402 13.1298 150.828 13.704C150.253 14.2631 149.966 15.1093 149.966 16.2427V22H146.43V9.80533H149.808V11.4147ZM161.886 22.1813C160.586 22.1813 159.415 21.9169 158.373 21.388C157.345 20.844 156.537 20.096 155.947 19.144C155.373 18.192 155.086 17.1116 155.086 15.9027C155.086 14.6938 155.373 13.6133 155.947 12.6613C156.537 11.7093 157.345 10.9689 158.373 10.44C159.415 9.896 160.586 9.624 161.886 9.624C163.17 9.624 164.289 9.896 165.241 10.44C166.208 10.9689 166.91 11.732 167.349 12.7293L164.606 14.2027C163.971 13.0844 163.057 12.5253 161.863 12.5253C160.942 12.5253 160.178 12.8276 159.574 13.432C158.97 14.0364 158.667 14.86 158.667 15.9027C158.667 16.9453 158.97 17.7689 159.574 18.3733C160.178 18.9778 160.942 19.28 161.863 19.28C163.072 19.28 163.986 18.7209 164.606 17.6027L167.349 19.0987C166.91 20.0658 166.208 20.8213 165.241 21.3653C164.289 21.9093 163.17 22.1813 161.886 22.1813ZM181.175 15.948C181.175 15.9933 181.152 16.3107 181.107 16.9H171.882C172.048 17.6556 172.441 18.2524 173.06 18.6907C173.68 19.1289 174.451 19.348 175.372 19.348C176.007 19.348 176.566 19.2573 177.05 19.076C177.548 18.8796 178.009 18.5773 178.432 18.1693L180.314 20.2093C179.165 21.524 177.488 22.1813 175.282 22.1813C173.907 22.1813 172.69 21.9169 171.632 21.388C170.575 20.844 169.759 20.096 169.184 19.144C168.61 18.192 168.323 17.1116 168.323 15.9027C168.323 14.7089 168.603 13.636 169.162 12.684C169.736 11.7169 170.514 10.9689 171.496 10.44C172.494 9.896 173.604 9.624 174.828 9.624C176.022 9.624 177.103 9.88089 178.07 10.3947C179.037 10.9084 179.792 11.6489 180.336 12.616C180.895 13.568 181.175 14.6787 181.175 15.948ZM174.851 12.2987C174.05 12.2987 173.378 12.5253 172.834 12.9787C172.29 13.432 171.957 14.0516 171.836 14.8373H177.843C177.722 14.0667 177.39 13.4547 176.846 13.0013C176.302 12.5329 175.637 12.2987 174.851 12.2987Z" fill="#FF834E"/>
<defs>
<clipPath id="clip0">
<rect width="18.8889" height="18.8889" fill="white" transform="translate(0 3.51855)"/>
</clipPath>
</defs>
</svg>
