<svg width="22" height="23" viewBox="0 0 22 23" fill="none" xmlns="http://www.w3.org/2000/svg">
<path fill-rule="evenodd" clip-rule="evenodd" d="M10.7001 5.32388C10.4658 5.32388 10.2759 5.13399 10.2759 4.89974C10.2759 4.6655 10.4658 4.47561 10.7001 4.47561L17.721 4.47561C17.8607 4.47561 17.9846 4.54313 18.0619 4.64733C18.1661 4.7246 18.2336 4.84852 18.2336 4.98821L18.2336 12.0091C18.2336 12.2434 18.0437 12.4333 17.8095 12.4333C17.5752 12.4333 17.3853 12.2434 17.3853 12.0091L17.3853 5.76378L4.75337 18.3957C4.58774 18.5614 4.31919 18.5614 4.15355 18.3957C3.98792 18.2301 3.98792 17.9616 4.15355 17.7959L16.6256 5.32388L10.7001 5.32388Z" fill="white"/>
</svg>
