<svg width="48" height="51" viewBox="0 0 48 51" fill="none" xmlns="http://www.w3.org/2000/svg">
<rect width="47.7198" height="50.0288" fill="#DE774B"/>
<path fill-rule="evenodd" clip-rule="evenodd" d="M23.219 19.4583C23.0064 19.4583 22.8341 19.286 22.8341 19.0735C22.8341 18.8609 23.0064 18.6886 23.219 18.6886L29.5893 18.6886C29.7164 18.6886 29.8291 18.7502 29.8992 18.8452C29.9935 18.9153 30.0545 19.0276 30.0545 19.1541L30.0545 25.5245C30.0545 25.737 29.8822 25.9093 29.6697 25.9093C29.4571 25.9093 29.2848 25.737 29.2848 25.5245L29.2848 19.8576L17.8234 31.3191C17.6731 31.4693 17.4294 31.4693 17.2791 31.3191C17.1289 31.1688 17.1289 30.9251 17.2791 30.7748L28.5957 19.4583L23.219 19.4583Z" fill="white"/>
</svg>
