<svg width="102" height="19" viewBox="0 0 102 19" fill="none" xmlns="http://www.w3.org/2000/svg">
<path d="M4.00448 10.3144C3.42931 10.3144 2.95871 10.7849 2.95871 11.3601C2.95871 11.9353 3.42931 12.4059 4.00448 12.4059C4.57965 12.4059 5.05024 11.9353 5.05024 11.3601C5.05024 10.7849 4.57965 10.3144 4.00448 10.3144ZM0.867188 1.94824V2.99401H1.91295L3.79533 6.96791L3.06329 8.22282C3.011 8.37969 2.95871 8.58884 2.95871 8.74571C2.95871 9.32088 3.42931 9.79147 4.00448 9.79147H10.2791V8.74571H4.21363C4.16134 8.74571 4.10905 8.69342 4.10905 8.64113V8.58882L4.57965 7.69992H8.44897C8.86728 7.69992 9.18101 7.49077 9.33787 7.17704L11.2202 3.77833C11.3248 3.67375 11.3248 3.62146 11.3248 3.51689C11.3248 3.20316 11.1157 2.99401 10.8019 2.99401H3.06329L2.5927 1.94824H0.867188ZM9.2333 10.3144C8.65813 10.3144 8.18753 10.7849 8.18753 11.3601C8.18753 11.9353 8.65813 12.4059 9.2333 12.4059C9.80847 12.4059 10.2791 11.9353 10.2791 11.3601C10.2791 10.7849 9.80847 10.3144 9.2333 10.3144Z" fill="#FF834E"/>
<path d="M25.8733 10.3686V12H19.0716V3.21559H25.7101V4.84698H21.092V6.75445H25.1705V8.33564H21.092V10.3686H25.8733ZM26.8567 7.68309H30.4081V9.25173H26.8567V7.68309ZM35.3338 12.1004C34.6143 12.1004 33.9659 11.954 33.3886 11.6612C32.8197 11.36 32.3722 10.9459 32.0459 10.4188C31.728 9.89174 31.569 9.29356 31.569 8.62427C31.569 7.95499 31.728 7.35681 32.0459 6.82974C32.3722 6.30268 32.8197 5.89274 33.3886 5.59993C33.9659 5.29875 34.6143 5.14816 35.3338 5.14816C36.0449 5.14816 36.664 5.29875 37.191 5.59993C37.7265 5.89274 38.1155 6.31523 38.3581 6.86739L36.8397 7.68309C36.4883 7.064 35.9821 6.75445 35.3212 6.75445C34.8109 6.75445 34.3884 6.92177 34.0537 7.25642C33.7191 7.59106 33.5518 8.04701 33.5518 8.62427C33.5518 9.20154 33.7191 9.65749 34.0537 9.99213C34.3884 10.3268 34.8109 10.4941 35.3212 10.4941C35.9905 10.4941 36.4966 10.1846 36.8397 9.56546L38.3581 10.3937C38.1155 10.9291 37.7265 11.3474 37.191 11.6486C36.664 11.9498 36.0449 12.1004 35.3338 12.1004ZM42.6121 12.1004C41.901 12.1004 41.2609 11.954 40.6921 11.6612C40.1315 11.36 39.6923 10.9459 39.3744 10.4188C39.0565 9.89174 38.8975 9.29356 38.8975 8.62427C38.8975 7.95499 39.0565 7.35681 39.3744 6.82974C39.6923 6.30268 40.1315 5.89274 40.6921 5.59993C41.2609 5.29875 41.901 5.14816 42.6121 5.14816C43.3232 5.14816 43.959 5.29875 44.5195 5.59993C45.0801 5.89274 45.5193 6.30268 45.8372 6.82974C46.1551 7.35681 46.3141 7.95499 46.3141 8.62427C46.3141 9.29356 46.1551 9.89174 45.8372 10.4188C45.5193 10.9459 45.0801 11.36 44.5195 11.6612C43.959 11.954 43.3232 12.1004 42.6121 12.1004ZM42.6121 10.4941C43.114 10.4941 43.524 10.3268 43.8419 9.99213C44.1682 9.64912 44.3313 9.19317 44.3313 8.62427C44.3313 8.05538 44.1682 7.60361 43.8419 7.26897C43.524 6.92596 43.114 6.75445 42.6121 6.75445C42.1101 6.75445 41.696 6.92596 41.3697 7.26897C41.0434 7.60361 40.8803 8.05538 40.8803 8.62427C40.8803 9.19317 41.0434 9.64912 41.3697 9.99213C41.696 10.3268 42.1101 10.4941 42.6121 10.4941ZM56.269 5.14816C57.114 5.14816 57.7833 5.39914 58.2769 5.90111C58.7788 6.39471 59.0298 7.13929 59.0298 8.13486V12H57.0721V8.43604C57.0721 7.90061 56.9592 7.50322 56.7333 7.24387C56.5158 6.97615 56.2021 6.84229 55.7921 6.84229C55.332 6.84229 54.9681 6.99288 54.7003 7.29406C54.4326 7.58688 54.2988 8.0261 54.2988 8.61173V12H52.3411V8.43604C52.3411 7.37354 51.9144 6.84229 51.0611 6.84229C50.6093 6.84229 50.2496 6.99288 49.9819 7.29406C49.7141 7.58688 49.5803 8.0261 49.5803 8.61173V12H47.6226V5.24855H49.4924V6.0266C49.7434 5.74215 50.0488 5.52463 50.4085 5.37404C50.7766 5.22345 51.1782 5.14816 51.6133 5.14816C52.0901 5.14816 52.521 5.24437 52.9058 5.43679C53.2907 5.62084 53.6002 5.89274 53.8345 6.25248C54.1105 5.90111 54.4577 5.62921 54.876 5.43679C55.3027 5.24437 55.767 5.14816 56.269 5.14816ZM69.4309 5.14816C70.2759 5.14816 70.9452 5.39914 71.4388 5.90111C71.9407 6.39471 72.1917 7.13929 72.1917 8.13486V12H70.2341V8.43604C70.2341 7.90061 70.1211 7.50322 69.8952 7.24387C69.6777 6.97615 69.364 6.84229 68.954 6.84229C68.4939 6.84229 68.13 6.99288 67.8623 7.29406C67.5945 7.58688 67.4607 8.0261 67.4607 8.61173V12H65.503V8.43604C65.503 7.37354 65.0764 6.84229 64.223 6.84229C63.7712 6.84229 63.4115 6.99288 63.1438 7.29406C62.8761 7.58688 62.7422 8.0261 62.7422 8.61173V12H60.7845V5.24855H62.6544V6.0266C62.9053 5.74215 63.2107 5.52463 63.5705 5.37404C63.9386 5.22345 64.3401 5.14816 64.7752 5.14816C65.252 5.14816 65.6829 5.24437 66.0677 5.43679C66.4526 5.62084 66.7621 5.89274 66.9964 6.25248C67.2725 5.90111 67.6196 5.62921 68.038 5.43679C68.4646 5.24437 68.9289 5.14816 69.4309 5.14816ZM80.6334 8.64937C80.6334 8.67447 80.6208 8.85016 80.5957 9.17644H75.4882C75.5803 9.59474 75.7978 9.9252 76.1408 10.1678C76.4838 10.4104 76.9105 10.5317 77.4208 10.5317C77.7722 10.5317 78.0817 10.4816 78.3494 10.3812C78.6255 10.2724 78.8807 10.1051 79.1149 9.87919L80.1565 11.0086C79.5207 11.7365 78.5921 12.1004 77.3706 12.1004C76.6093 12.1004 75.9358 11.954 75.3502 11.6612C74.7646 11.36 74.3128 10.9459 73.9949 10.4188C73.677 9.89174 73.518 9.29356 73.518 8.62427C73.518 7.96335 73.6728 7.36936 73.9823 6.84229C74.3002 6.30686 74.7311 5.89274 75.2749 5.59993C75.8271 5.29875 76.442 5.14816 77.1196 5.14816C77.7805 5.14816 78.3787 5.29038 78.9142 5.57483C79.4496 5.85928 79.8679 6.26922 80.1691 6.80465C80.4786 7.33171 80.6334 7.94662 80.6334 8.64937ZM77.1322 6.62896C76.6888 6.62896 76.3165 6.75445 76.0153 7.00543C75.7141 7.25642 75.5301 7.59943 75.4631 8.03446H78.7887C78.7217 7.60779 78.5377 7.26897 78.2365 7.01798C77.9353 6.75863 77.5672 6.62896 77.1322 6.62896ZM83.8066 6.13954C84.0408 5.81326 84.3545 5.56646 84.7478 5.39914C85.1493 5.23182 85.6095 5.14816 86.1282 5.14816V6.95524C85.9106 6.9385 85.7642 6.93014 85.6889 6.93014C85.1284 6.93014 84.6892 7.08909 84.3713 7.40701C84.0534 7.71655 83.8944 8.18505 83.8944 8.81251V12H81.9367V5.24855H83.8066V6.13954ZM90.4937 12.1004C89.7742 12.1004 89.1258 11.954 88.5486 11.6612C87.9797 11.36 87.5321 10.9459 87.2058 10.4188C86.8879 9.89174 86.729 9.29356 86.729 8.62427C86.729 7.95499 86.8879 7.35681 87.2058 6.82974C87.5321 6.30268 87.9797 5.89274 88.5486 5.59993C89.1258 5.29875 89.7742 5.14816 90.4937 5.14816C91.2048 5.14816 91.8239 5.29875 92.351 5.59993C92.8864 5.89274 93.2754 6.31523 93.518 6.86739L91.9996 7.68309C91.6482 7.064 91.1421 6.75445 90.4812 6.75445C89.9708 6.75445 89.5483 6.92177 89.2137 7.25642C88.879 7.59106 88.7117 8.04701 88.7117 8.62427C88.7117 9.20154 88.879 9.65749 89.2137 9.99213C89.5483 10.3268 89.9708 10.4941 90.4812 10.4941C91.1504 10.4941 91.6566 10.1846 91.9996 9.56546L93.518 10.3937C93.2754 10.9291 92.8864 11.3474 92.351 11.6486C91.8239 11.9498 91.2048 12.1004 90.4937 12.1004ZM101.173 8.64937C101.173 8.67447 101.16 8.85016 101.135 9.17644H96.0277C96.1197 9.59474 96.3372 9.9252 96.6802 10.1678C97.0233 10.4104 97.4499 10.5317 97.9603 10.5317C98.3116 10.5317 98.6212 10.4816 98.8889 10.3812C99.165 10.2724 99.4201 10.1051 99.6544 9.87919L100.696 11.0086C100.06 11.7365 99.1315 12.1004 97.9101 12.1004C97.1487 12.1004 96.4753 11.954 95.8896 11.6612C95.304 11.36 94.8522 10.9459 94.5343 10.4188C94.2164 9.89174 94.0575 9.29356 94.0575 8.62427C94.0575 7.96335 94.2122 7.36936 94.5218 6.84229C94.8397 6.30686 95.2706 5.89274 95.8143 5.59993C96.3665 5.29875 96.9814 5.14816 97.6591 5.14816C98.32 5.14816 98.9182 5.29038 99.4536 5.57483C99.989 5.85928 100.407 6.26922 100.709 6.80465C101.018 7.33171 101.173 7.94662 101.173 8.64937ZM97.6716 6.62896C97.2282 6.62896 96.8559 6.75445 96.5547 7.00543C96.2536 7.25642 96.0695 7.59943 96.0026 8.03446H99.3281C99.2612 7.60779 99.0771 7.26897 98.776 7.01798C98.4748 6.75863 98.1067 6.62896 97.6716 6.62896Z" fill="#FF834E"/>
</svg>
