<svg width="21" height="20" viewBox="0 0 21 20" fill="none" xmlns="http://www.w3.org/2000/svg">
<path fill-rule="evenodd" clip-rule="evenodd" d="M10.219 4.45829C10.0064 4.45829 9.83412 4.286 9.83412 4.07346C9.83412 3.86092 10.0064 3.68862 10.219 3.68862L16.5893 3.68862C16.7164 3.68862 16.8291 3.75023 16.8992 3.84521C16.9935 3.91535 17.0545 4.0276 17.0545 4.15412L17.0545 10.5245C17.0545 10.737 16.8822 10.9093 16.6697 10.9093C16.4571 10.9093 16.2848 10.737 16.2848 10.5245L16.2848 4.85761L4.82338 16.3191C4.67309 16.4693 4.42943 16.4693 4.27914 16.3191C4.12885 16.1688 4.12885 15.9251 4.27914 15.7748L15.5957 4.45829L10.219 4.45829Z" fill="white"/>
</svg>
